<svg width="1000" height="1000" viewBox="0 250 1000 1000" fill="none" xmlns="http://www.w3.org/2000/svg"><path opacity=".2" fill-rule="evenodd" clip-rule="evenodd" d="M1.36 150.879a3 3 0 0 0 0 4.242L381.74 535.5 1.121 916.117a3 3 0 0 0 0 4.243l149.907 149.91a3.003 3.003 0 0 0 4.243 0l380.617-380.621 380.468 380.471a3.003 3.003 0 0 0 4.243 0l149.911-149.909a3.003 3.003 0 0 0 0-4.243L690.037 535.5l380.233-380.23a3.002 3.002 0 0 0 0-4.242L920.36 1.121a3 3 0 0 0-4.243 0l-380.229 380.23L155.509.971a3 3 0 0 0-4.242 0L1.36 150.88Z" fill="url('#paint0_linear')"/><defs><linearGradient id="paint0_linear" x1="535.813" y1=".093" x2="535.813" y2="1071.15" gradientUnits="userSpaceOnUse"><stop stop-color="#C12D63"/><stop offset="1" stop-color="#833882"/></linearGradient></defs></svg>