<svg width="1000" height="1000" viewBox="0 250 1000 1000" fill="none" xmlns="http://www.w3.org/2000/svg">
<path opacity="0.2" fill-rule="evenodd" clip-rule="evenodd" d="M1.36017 150.879C0.188598 152.05 0.188617 153.95 1.36019 155.121L381.739 535.5L1.12136 916.117C-0.0502169 917.289 -0.050218 919.188 1.12135 920.36L151.028 1070.27C152.2 1071.44 154.099 1071.44 155.271 1070.27L535.888 689.649L916.356 1070.12C917.528 1071.29 919.427 1071.29 920.599 1070.12L1070.51 920.211C1071.68 919.039 1071.68 917.14 1070.51 915.968L690.037 535.5L1070.27 155.27C1071.44 154.099 1071.44 152.199 1070.27 151.028L920.36 1.12122C919.189 -0.0503552 917.289 -0.0503362 916.117 1.12124L535.888 381.351L155.509 0.971942C154.338 -0.199631 152.438 -0.199632 151.267 0.971941L1.36017 150.879Z" fill="url(#paint0_linear)"/>
<defs>
<linearGradient id="paint0_linear" x1="535.813" y1="0.0932617" x2="535.813" y2="1071.15" gradientUnits="userSpaceOnUse">
<stop stop-color="#C12D63"/>
<stop offset="1" stop-color="#833882"/>
</linearGradient>
</defs>
</svg>
